<?xml version="1.0" encoding="utf-8"?>
<!-- Generator: Adobe Illustrator 22.0.0, SVG Export Plug-In . SVG Version: 6.00 Build 0)  -->
<svg version="1.1" id="Ebene_1" xmlns="http://www.w3.org/2000/svg" xmlns:xlink="http://www.w3.org/1999/xlink" x="0px" y="0px"
	 viewBox="0 0 150 100" style="enable-background:new 0 0 150 100;" xml:space="preserve">
<style type="text/css">
	.st0{fill:none;stroke:#FF6B6B;stroke-width:2;}
	.st1{fill:#FF6B6B;}
</style>
<title>video</title>
<desc>Created with Sketch.</desc>
<g id="Page-1">
	<g id="video">
		<g id="Group-2" transform="translate(28.000000, 26.000000)">
			<rect id="Rectangle-9" x="-1" y="-1" class="st0" width="97" height="49"/>
		</g>
	</g>
</g>
<g>
	<path class="st1" d="M53.4,58.2C53.1,58,53,57.6,53,57.2v-9.1c0-0.4,0.1-0.7,0.4-0.9c0.3-0.2,0.6-0.3,1-0.3c0.5,0,0.8,0.1,1.1,0.3
		c0.3,0.2,0.4,0.5,0.4,0.9v9.1c0,0.4-0.1,0.8-0.4,1.1c-0.3,0.3-0.6,0.4-1.1,0.4C54,58.6,53.6,58.5,53.4,58.2z M62.1,58.3
		c0,1,0.2,1.7,0.6,2.2c0.4,0.5,1,0.8,1.8,0.8c0.6,0,1.3-0.2,2-0.5c0.7-0.3,1.3-0.9,2-1.6v1.8h3.4V44.4h-3.4v12.6
		c-0.3,0.4-0.7,0.7-1,0.9c-0.4,0.2-0.7,0.3-0.9,0.3c-0.3,0-0.6-0.1-0.7-0.3c-0.1-0.2-0.2-0.5-0.2-0.9V44.4h-3.4V58.3z M49.5,56.8
		c0,1.4,0.4,2.5,1.3,3.4c0.9,0.8,2.1,1.3,3.6,1.3c1.5,0,2.8-0.4,3.6-1.2c0.9-0.8,1.3-1.9,1.3-3.3v-8.6c0-1.3-0.4-2.3-1.3-3.1
		C57.1,44.4,56,44,54.6,44c-1.5,0-2.8,0.4-3.7,1.1c-0.9,0.8-1.4,1.8-1.4,3.1V56.8z M36.4,38.5L41,52.1v8.9h3.8v-9.3l4.5-13.2h-3.9
		l-2.4,9h-0.2l-2.5-9H36.4z"/>
	<g>
		<polygon class="st1" points="71.8,40.6 82.2,40.6 82.2,43.6 78.7,43.6 78.7,61.1 75.3,61.1 75.3,43.6 71.8,43.6 		"/>
		<path class="st1" d="M89.2,46h3v15.1h-3v-1.7c-0.6,0.6-1.1,1.1-1.7,1.4c-0.6,0.3-1.2,0.5-1.8,0.5c-0.7,0-1.2-0.2-1.6-0.7
			c-0.3-0.5-0.5-1.1-0.5-2V46h3v11.6c0,0.4,0.1,0.6,0.2,0.8c0.1,0.2,0.3,0.2,0.6,0.2c0.2,0,0.5-0.1,0.8-0.3c0.3-0.2,0.7-0.5,0.9-0.8
			V46z"/>
		<path class="st1" d="M100.2,45.8c-0.5,0-0.9,0.1-1.4,0.4c-0.5,0.2-0.9,0.6-1.3,1v-6.6h-3v20.5h3v-1.2c0.4,0.5,0.8,0.8,1.3,1
			c0.5,0.2,1,0.3,1.6,0.3c0.9,0,1.6-0.3,2-0.9c0.5-0.6,0.7-1.4,0.7-2.5v-8.4c0-1.2-0.2-2.2-0.8-2.8
			C101.9,46.1,101.1,45.8,100.2,45.8z M100,57.5c0,0.5-0.1,0.8-0.3,1c-0.2,0.2-0.4,0.3-0.8,0.3c-0.3,0-0.5-0.1-0.7-0.2
			c-0.2-0.1-0.5-0.3-0.7-0.5v-9.4c0.2-0.2,0.4-0.4,0.6-0.5c0.2-0.1,0.4-0.1,0.6-0.1c0.4,0,0.7,0.1,0.9,0.4c0.2,0.3,0.3,0.6,0.3,1.2
			V57.5z M109.3,45.6c-1.4,0-2.4,0.4-3.3,1.2c-0.9,0.8-1.3,1.9-1.3,3.2v6.8c0,1.5,0.4,2.6,1.2,3.4c0.8,0.8,1.8,1.2,3.2,1.2
			c1.5,0,2.6-0.4,3.4-1.2c0.8-0.8,1.1-2,1.1-3.5V56h-3.1v0.7c0,0.9-0.1,1.5-0.3,1.7c-0.2,0.3-0.5,0.4-1.1,0.4c-0.5,0-0.8-0.2-1-0.5
			c-0.2-0.3-0.3-0.9-0.3-1.7v-2.8h5.8V50c0-1.4-0.4-2.5-1.1-3.3C111.7,46,110.7,45.6,109.3,45.6z M110.5,51.5h-2.7V50
			c0-0.6,0.1-1.1,0.3-1.4c0.2-0.3,0.6-0.4,1-0.4c0.5,0,0.8,0.1,1,0.4c0.2,0.3,0.3,0.7,0.3,1.4V51.5z"/>
	</g>
</g>
</svg>
